<svg width="77" height="77" viewBox="0 0 77 77" fill="none" xmlns="http://www.w3.org/2000/svg">
<g clip-path="url(#clip0_148_147)">
<path d="M1.78888 77C1.3565 77 0.935881 76.829 0.623939 76.5136C0.212715 76.0977 0.0540999 75.4937 0.208603 74.9292L5.21437 56.6497C2.09788 51.0141 0.454749 44.639 0.457099 38.1675C0.465911 17.1216 17.5928 0 38.6369 0C48.844 0.00411225 58.4349 3.98006 65.6437 11.1941C72.8513 18.4088 76.819 27.9991 76.8161 38.198C76.8067 59.2445 59.6798 76.3673 38.6369 76.3673C38.6369 76.3673 38.621 76.3673 38.6204 76.3673C32.4738 76.365 26.3801 74.8669 20.9543 72.0295L2.20421 76.9465C2.06675 76.9824 1.92693 77 1.78888 77Z" fill="white"/>
<path d="M1.78885 75.3614L6.97263 56.4316C3.77507 50.8912 2.09316 44.6066 2.09551 38.168C2.10373 18.0257 18.4952 1.63843 38.637 1.63843C48.4112 1.64254 57.5856 5.44694 64.4848 12.352C71.3834 19.257 75.1813 28.4355 75.1778 38.1974C75.169 58.3391 58.7752 74.7287 38.637 74.7287C38.6358 74.7287 38.6375 74.7287 38.637 74.7287H38.6211C32.5056 74.7263 26.497 73.1925 21.1599 70.2816L1.78885 75.3614ZM22.057 63.6685L23.1667 64.3259C27.8288 67.0928 33.1741 68.5562 38.6252 68.5592H38.637C55.3762 68.5592 69.0006 54.9371 69.0077 38.195C69.0106 30.0816 65.8548 22.4522 60.1205 16.7133C54.3857 10.9744 46.761 7.81207 38.6481 7.80854C21.8954 7.80854 8.27152 21.4288 8.26505 38.1703C8.26271 43.9075 9.86766 49.4943 12.9084 54.3291L13.631 55.4781L10.562 66.6822L22.057 63.6685Z" fill="white"/>
<path d="M3.05951 74.0861L8.06411 55.8107C4.9764 50.4624 3.35324 44.3945 3.355 38.1798C3.36264 18.7347 19.1871 2.91492 38.6304 2.91492C48.0674 2.91903 56.9246 6.59185 63.5835 13.2578C70.2441 19.9237 73.9099 28.7845 73.9064 38.2074C73.8981 57.653 58.0731 73.4746 38.6321 73.4746C38.6304 73.4746 38.6327 73.4746 38.6321 73.4746H38.6163C32.7129 73.4722 26.9117 71.9906 21.7596 69.1825L3.05951 74.0861Z" fill="#64B161"/>
<path d="M1.78885 75.3614L6.97263 56.4316C3.77507 50.8912 2.09316 44.6066 2.09551 38.168C2.10373 18.0257 18.4952 1.63843 38.637 1.63843C48.4112 1.64254 57.5856 5.44694 64.4848 12.352C71.3834 19.257 75.1813 28.4355 75.1778 38.1974C75.169 58.3391 58.7752 74.7287 38.637 74.7287C38.6358 74.7287 38.6375 74.7287 38.637 74.7287H38.6211C32.5056 74.7263 26.497 73.1925 21.1599 70.2816L1.78885 75.3614ZM22.057 63.6685L23.1667 64.3259C27.8288 67.0928 33.1741 68.5562 38.6252 68.5592H38.637C55.3762 68.5592 69.0006 54.9371 69.0077 38.195C69.0106 30.0816 65.8548 22.4522 60.1205 16.7133C54.3857 10.9744 46.761 7.81207 38.6481 7.80854C21.8954 7.80854 8.27152 21.4288 8.26505 38.1703C8.26271 43.9075 9.86766 49.4943 12.9084 54.3291L13.631 55.4781L10.562 66.6822L22.057 63.6685Z" fill="white"/>
<path fill-rule="evenodd" clip-rule="evenodd" d="M29.5042 22.8965C28.8204 21.3761 28.1002 21.3455 27.4493 21.3191C26.917 21.2962 26.3078 21.2974 25.6998 21.2974C25.0912 21.2974 24.1019 21.5265 23.2654 22.44C22.4282 23.3535 20.069 25.5624 20.069 30.0547C20.069 34.5477 23.3411 38.8885 23.7976 39.4983C24.254 40.1075 30.114 49.6209 39.3941 53.2808C47.1069 56.3227 48.676 55.7176 50.3503 55.5655C52.0246 55.4133 55.752 53.3566 56.5128 51.2247C57.2741 49.0928 57.2741 47.2657 57.0456 46.8833C56.8171 46.5032 56.2085 46.2747 55.2955 45.8182C54.3826 45.3618 49.8938 43.1523 49.0567 42.848C48.2196 42.5431 47.611 42.3915 47.0023 43.3056C46.3931 44.2186 44.6449 46.2747 44.112 46.8833C43.5792 47.4937 43.0464 47.57 42.1335 47.113C41.2205 46.6554 38.2797 45.6919 34.7914 42.5813C32.0773 40.1615 30.2444 37.1725 29.7116 36.2584C29.1793 35.3455 29.7028 34.8943 30.1128 34.3955C30.8512 33.4973 32.0902 31.8823 32.3945 31.2737C32.6988 30.6639 32.5467 30.1311 32.3187 29.6741C32.0902 29.2176 30.3155 24.7023 29.5042 22.8965Z" fill="white"/>
</g>
<defs>
<clipPath id="clip0_148_147">
<rect width="77" height="77" fill="white"/>
</clipPath>
</defs>
</svg>
